<?xml version="1.0" encoding="utf-8"?>
<!-- Generator: Adobe Illustrator 27.5.0, SVG Export Plug-In . SVG Version: 6.00 Build 0)  -->
<svg version="1.1" id="Capa_1" xmlns="http://www.w3.org/2000/svg" xmlns:xlink="http://www.w3.org/1999/xlink" x="0px" y="0px"
	 viewBox="0 0 2122 2122" style="enable-background:new 0 0 2122 2122;" xml:space="preserve">
<path style="fill:#324768;" d="M1358.103,1231.094h186.823h117.025c16.716,0,30.392-13.676,30.392-30.392V650.917
	c-5.411,3.398-11.1,6.445-17.026,9.119v529.565c0,16.265-13.308,29.573-29.573,29.573H475.579
	c-16.265,0-29.573-13.308-29.573-29.573V658.593c-5.943-2.853-11.63-6.09-17.027-9.68v551.788c0,16.716,13.676,30.392,30.392,30.392
	h117.025H763.22H1358.103z"/>
<path style="fill:#324768;" d="M446.006,388.23c0-16.265,13.308-29.573,29.573-29.573h1170.166
	c16.265,0,29.573,13.308,29.573,29.573v78.628l17.026,17.404V377.131c0-16.715-13.676-30.392-30.392-30.392H459.372
	c-16.716,0-30.392,13.677-30.392,30.392v110.265l17.027-17.405V388.23z"/>
<path style="fill:#1B273F;" d="M1623.216,752.604v306.863H498.107V751.501h-0.001V672.48c-18.673-1.442-36.282-6.293-52.1-13.887
	v531.009c0,16.265,13.308,29.573,29.573,29.573h1170.166c16.265,0,29.573-13.308,29.573-29.573V660.037
	c-15.891,7.169-33.497,11.602-52.101,12.658V752.604z"/>
<path style="fill:#1B273F;" d="M1174.376,413.483h224.364h224.365h0.111v0.114l52.101,53.261V388.23
	c0-16.265-13.308-29.573-29.573-29.573H475.579c-16.265,0-29.573,13.308-29.573,29.573v81.76l52.101-53.261v-3.247h3.176h224.364
	h224.365H1174.376z"/>
<path style="fill:#5D87C5;" d="M1483.134,625.633c0,70.15-61.829,127.017-138.098,127.017c-76.27,0-138.099-56.867-138.099-127.017
	c0,70.15-61.83,127.017-138.098,127.017c-76.27,0-138.098-56.867-138.098-127.017c0,70.15-61.83,127.017-138.098,127.017
	c-76.27,0-138.099-56.867-138.099-127.017c0,70.15-61.828,127.017-138.098,127.017c-6.222,0-12.334-0.415-18.338-1.148v307.966
	h1125.109V752.604c-0.663,0.009-1.319,0.045-1.984,0.045C1544.962,752.649,1483.134,695.782,1483.134,625.633z"/>
<path style="fill:#4574AA;" d="M498.107,751.501c6.004,0.733,12.116,1.148,18.338,1.148c76.27,0,138.098-56.867,138.098-127.017
	c0,70.15,61.83,127.017,138.099,127.017c76.269,0,138.098-56.867,138.098-127.017c0,70.15,61.828,127.017,138.098,127.017
	c76.269,0,138.098-56.867,138.098-127.017c0,70.15,61.828,127.017,138.099,127.017c76.27,0,138.098-56.867,138.098-127.017
	c0,70.15,61.828,127.017,138.098,127.017c0.665,0,1.321-0.037,1.984-0.045v-79.909c-2.856,0.162-5.728,0.271-8.629,0.271
	c-76.269,0-138.098-56.867-138.098-127.018c0,70.15-61.829,127.018-138.099,127.018c-76.27,0-138.098-56.867-138.098-127.018
	c0,70.15-61.828,127.018-138.098,127.018c-76.269,0-138.098-56.867-138.098-127.018c0,70.15-61.828,127.018-138.098,127.018
	c-76.269,0-138.098-56.867-138.098-127.018c0,70.15-61.828,127.018-138.098,127.018c-3.942,0-7.835-0.189-11.694-0.486
	L498.107,751.501L498.107,751.501z"/>
<rect x="576.397" y="1231.094" style="fill:#0D141E;" width="186.823" height="32.18"/>
<rect x="1358.103" y="1231.094" style="fill:#0D141E;" width="186.823" height="32.18"/>
<path style="fill:#7398A7;" d="M1927.138,1699.023H194.184c-11.192,0-20.304-5.009-26.301-12.385l21.811,48.333
	c6.754,23.454,28.215,39.607,52.622,39.607h1636.816c24.385,0,45.831-16.123,52.605-39.548l23.381-50.733
	C1949.227,1692.926,1939.465,1699.023,1927.138,1699.023z"/>
<path style="fill:#8EB0C0;" d="M1951.299,1640.904l-375.706-377.63h-30.667h-186.823H763.22H576.397h-30.667l-375.706,377.63
	c-8.466,8.509-11.121,19.375-9.448,29.415c0.012,0.073,0.029,0.145,0.041,0.217c1.019,5.881,3.495,11.463,7.266,16.102
	c5.997,7.376,15.109,12.385,26.301,12.385h1732.954c12.326,0,22.089-6.098,27.979-14.726c2.288-3.352,4.043-7.049,5.058-10.974
	c0.004-0.016,0.005-0.032,0.009-0.048C1962.964,1662.461,1960.601,1650.253,1951.299,1640.904z"/>
<path style="fill:#718891;" d="M1744.687,1501.701l-179.729-198.639c-5.835-6.45-22.691-11.617-37.579-11.617H593.944
	c-14.888,0-31.744,5.167-37.579,11.617l-179.729,198.639c-11.038,12.199-2.962,22.476,18.275,22.476h1331.5
	C1747.648,1524.177,1755.724,1513.899,1744.687,1501.701z"/>
<path style="fill:#2C393D;" d="M1337.058,1559.187c-4.268-12.559-23.864-22.55-43.665-22.55H827.929
	c-19.801,0-39.397,9.991-43.665,22.55l-28.304,83.304c-5.361,15.776,9.077,29.103,32.257,29.103h544.887
	c23.18,0,37.617-13.326,32.257-29.103L1337.058,1559.187z"/>
<path style="fill:#2C393D;" d="M560.784,1332.776h62.51c4.922,0,10.274-1.814,11.882-4.018l17.949-24.597
	c1.464-2.006-1.152-3.637-5.804-3.637h-59.077c-4.652,0-9.871,1.631-11.61,3.637l-21.318,24.597
	C553.407,1330.962,555.862,1332.776,560.784,1332.776z"/>
<path style="fill:#2C393D;" d="M664.013,1332.776h62.51c4.922,0,9.955-1.814,11.175-4.018l13.625-24.597
	c1.111-2.006-1.791-3.637-6.443-3.637h-59.077c-4.652,0-9.584,1.631-10.97,3.637l-16.993,24.597
	C656.317,1330.962,659.09,1332.776,664.013,1332.776z"/>
<path style="fill:#2C393D;" d="M870.47,1332.776h62.511c4.922,0,9.316-1.814,9.761-4.018l4.975-24.597
	c0.406-2.006-3.07-3.637-7.723-3.637h-59.076c-4.652,0-9.011,1.631-9.692,3.637l-8.343,24.597
	C862.136,1330.962,865.548,1332.776,870.47,1332.776z"/>
<path style="fill:#2C393D;" d="M973.698,1332.776h62.511c4.922,0,8.997-1.814,9.055-4.018l0.649-24.597
	c0.053-2.006-3.71-3.637-8.362-3.637h-59.077c-4.652,0-8.724,1.631-9.052,3.637l-4.018,24.597
	C965.045,1330.962,968.776,1332.776,973.698,1332.776z"/>
<path style="fill:#2C393D;" d="M1180.156,1332.776h62.511c4.922,0,8.359-1.814,7.642-4.018l-8-24.597
	c-0.653-2.006-4.989-3.637-9.641-3.637h-59.077c-4.652,0-8.151,1.631-7.773,3.637l4.632,24.597
	C1170.864,1330.962,1175.233,1332.776,1180.156,1332.776z"/>
<path style="fill:#2C393D;" d="M1272.972,1328.758c0.802,2.203,5.49,4.018,10.413,4.018h62.511c4.922,0,8.04-1.814,6.936-4.018
	l-12.325-24.597c-1.006-2.006-5.629-3.637-10.28-3.637h-59.077c-4.652,0-7.864,1.631-7.134,3.637L1272.972,1328.758z"/>
<path style="fill:#2C393D;" d="M1375.494,1328.758c1.189,2.203,6.196,4.018,11.119,4.018h62.51c4.922,0,7.721-1.814,6.23-4.018
	l-16.651-24.597c-1.358-2.006-6.268-3.637-10.92-3.637h-59.077c-4.652,0-7.577,1.631-6.494,3.637L1375.494,1328.758z"/>
<path style="fill:#2C393D;" d="M1478.016,1328.758c1.577,2.203,6.903,4.018,11.825,4.018h62.511c4.922,0,7.402-1.814,5.523-4.018
	l-20.975-24.597c-1.711-2.006-6.908-3.637-11.56-3.637h-59.077c-4.652,0-7.291,1.631-5.854,3.637L1478.016,1328.758z"/>
<path style="fill:#2C393D;" d="M518.331,1382.634h67.819c5.34,0,11.268-2.135,13.159-4.726l21.028-28.816
	c1.709-2.341-1.013-4.244-6.037-4.244h-63.796c-5.023,0-10.782,1.903-12.811,4.244l-24.975,28.816
	C510.472,1380.499,512.991,1382.634,518.331,1382.634z"/>
<path style="fill:#2C393D;" d="M643.791,1349.092l-19.908,28.816c-1.79,2.591,1.104,4.726,6.444,4.726h67.82
	c5.34,0,10.893-2.135,12.327-4.726l15.961-28.816c1.297-2.341-1.76-4.244-6.783-4.244h-63.796
	C650.833,1344.848,645.408,1346.751,643.791,1349.092z"/>
<path style="fill:#2C393D;" d="M749.888,1349.092l-14.842,28.816c-1.334,2.591,1.935,4.726,7.275,4.726h67.82
	c5.34,0,10.517-2.135,11.497-4.726l10.894-28.816c0.885-2.341-2.506-4.244-7.529-4.244h-63.796
	C756.184,1344.848,751.094,1346.751,749.888,1349.092z"/>
<path style="fill:#2C393D;" d="M854.318,1382.634h67.819c5.341,0,10.142-2.135,10.666-4.726l5.827-28.816
	c0.474-2.341-3.251-4.244-8.275-4.244h-63.796c-5.023,0-9.779,1.903-10.573,4.244l-9.775,28.816
	C845.332,1380.499,848.977,1382.634,854.318,1382.634z"/>
<path style="fill:#2C393D;" d="M966.313,1382.634h67.819c5.34,0,9.766-2.135,9.834-4.726l0.761-28.816
	c0.062-2.341-3.998-4.244-9.022-4.244H971.91c-5.023,0-9.444,1.903-9.826,4.244l-4.708,28.816
	C956.952,1380.499,960.973,1382.634,966.313,1382.634z"/>
<path style="fill:#2C393D;" d="M1078.308,1382.634h67.82c5.34,0,9.39-2.135,9.003-4.726l-4.306-28.816
	c-0.35-2.341-4.744-4.244-9.768-4.244h-63.796c-5.024,0-9.11,1.903-9.081,4.244l0.359,28.816
	C1068.572,1380.499,1072.968,1382.634,1078.308,1382.634z"/>
<path style="fill:#2C393D;" d="M1182.613,1344.848c-5.024,0-8.776,1.903-8.335,4.244l5.426,28.816
	c0.488,2.591,5.259,4.726,10.6,4.726h67.819c5.34,0,9.015-2.135,8.172-4.726l-9.372-28.816c-0.762-2.341-5.491-4.244-10.514-4.244
	H1182.613z"/>
<path style="fill:#2C393D;" d="M1302.3,1382.634h67.819c5.34,0,8.64-2.135,7.341-4.726l-14.44-28.816
	c-1.173-2.341-6.236-4.244-11.26-4.244h-63.796c-5.023,0-8.441,1.903-7.588,4.244l10.492,28.816
	C1291.812,1380.499,1296.959,1382.634,1302.3,1382.634z"/>
<path style="fill:#2C393D;" d="M1386.474,1349.092l15.559,28.816c1.399,2.591,6.922,4.726,12.262,4.726h67.82
	c5.34,0,8.264-2.135,6.51-4.726l-19.507-28.816c-1.585-2.341-6.983-4.244-12.006-4.244h-63.796
	C1388.292,1344.848,1385.21,1346.751,1386.474,1349.092z"/>
<path style="fill:#2C393D;" d="M1492.571,1349.092l20.627,28.816c1.854,2.591,7.753,4.726,13.093,4.726h67.82
	c5.34,0,7.888-2.135,5.679-4.726l-24.574-28.816c-1.997-2.341-7.729-4.244-12.752-4.244h-63.796
	C1493.644,1344.848,1490.896,1346.751,1492.571,1349.092z"/>
<path style="fill:#2C393D;" d="M804.542,1396.87h-69.335c-5.46,0-11.084,2.247-12.509,5.015l-17.626,34.222
	c-1.592,3.091,1.869,5.641,7.706,5.641h74.114c5.836,0,11.575-2.55,12.744-5.641l12.938-34.222
	C813.619,1399.117,810.002,1396.87,804.542,1396.87z"/>
<path style="fill:#2C393D;" d="M835.167,1441.747h74.114c5.836,0,11.127-2.55,11.752-5.641l6.921-34.222
	c0.56-2.768-3.453-5.015-8.912-5.015h-69.335c-5.46,0-10.689,2.247-11.628,5.015l-11.608,34.222
	C825.421,1439.198,829.331,1441.747,835.167,1441.747z"/>
<path style="fill:#2C393D;" d="M957.556,1441.747h74.114c5.836,0,10.678-2.55,10.76-5.641l0.904-34.222
	c0.073-2.768-4.335-5.015-9.794-5.015h-69.336c-5.459,0-10.293,2.247-10.746,5.015l-5.591,34.222
	C947.363,1439.198,951.721,1441.747,957.556,1441.747z"/>
<path style="fill:#2C393D;" d="M1078.703,1396.87c-5.459,0-9.899,2.247-9.864,5.015l0.427,34.222
	c0.038,3.091,4.845,5.641,10.681,5.641h74.114c5.835,0,10.229-2.55,9.767-5.641l-5.114-34.222
	c-0.414-2.768-5.217-5.015-10.676-5.015H1078.703z"/>
<path style="fill:#2C393D;" d="M1262.537,1396.87h-69.336c-5.459,0-9.503,2.247-8.982,5.015l6.443,34.222
	c0.582,3.091,5.837,5.641,11.673,5.641h74.114c5.836,0,9.781-2.55,8.776-5.641l-11.13-34.222
	C1273.194,1399.117,1267.996,1396.87,1262.537,1396.87z"/>
<path style="fill:#2C393D;" d="M1398.84,1441.747c5.836,0,9.333-2.55,7.784-5.641l-17.149-34.222
	c-1.387-2.768-6.98-5.015-12.44-5.015H1307.7c-5.459,0-9.108,2.247-8.1,5.015l12.462,34.222c1.125,3.091,6.828,5.641,12.664,5.641
	H1398.84z"/>
<path style="fill:#2C393D;" d="M678.237,1436.107l18.956-34.222c1.533-2.768-1.689-5.015-7.149-5.015H506.21
	c-5.46,0-11.874,2.247-14.274,5.015l-29.66,34.222c-2.679,3.091-0.114,5.641,5.721,5.641h196.504
	C670.337,1441.747,676.524,1439.198,678.237,1436.107z"/>
<path style="fill:#2C393D;" d="M1649.42,1436.107l-29.183-34.222c-2.361-2.768-8.744-5.015-14.204-5.015h-183.833
	c-5.46,0-8.713,2.247-7.219,5.015l18.479,34.222c1.669,3.091,7.82,5.641,13.656,5.641h196.504
	C1649.455,1441.747,1652.056,1439.198,1649.42,1436.107z"/>
<path style="fill:#2C393D;" d="M780.912,1456.949h-75.732c-5.963,0-12.224,2.682-13.926,5.988l-21.161,41.085
	c-1.922,3.731,1.741,6.811,8.156,6.811h81.47c6.415,0,12.828-3.08,14.239-6.811l15.533-41.085
	C790.74,1459.631,786.875,1456.949,780.912,1456.949z"/>
<path style="fill:#2C393D;" d="M1420.068,1462.937c-1.656-3.306-7.879-5.988-13.843-5.988h-75.733c-5.963,0-9.865,2.682-8.662,5.988
	l14.961,41.085c1.358,3.731,7.729,6.811,14.143,6.811h81.47c6.415,0,10.12-3.08,8.251-6.811L1420.068,1462.937z"/>
<path style="fill:#2C393D;" d="M655.849,1456.949H455.054c-5.963,0-13.167,2.682-16.032,5.988l-35.609,41.085
	c-3.234,3.731-0.654,6.811,5.761,6.811h216.008c6.415,0,13.37-3.08,15.436-6.811l22.758-41.085
	C665.206,1459.631,661.813,1456.949,655.849,1456.949z"/>
<path style="fill:#2C393D;" d="M1672.3,1462.937c-2.819-3.306-9.986-5.988-15.949-5.988h-200.795c-5.964,0-9.394,2.682-7.609,5.988
	l22.185,41.085c2.014,3.731,8.926,6.811,15.341,6.811h216.008c6.415,0,9.038-3.08,5.856-6.811L1672.3,1462.937z"/>
<path style="fill:#2C393D;" d="M1293.953,1462.937c-1.076-3.306-6.827-5.988-12.79-5.988h-450.92
	c-5.964,0-11.752,2.682-12.874,5.988l-13.937,41.085c-1.265,3.731,2.939,6.811,9.354,6.811h485.082c6.415,0,10.662-3.08,9.448-6.811
	L1293.953,1462.937z"/>
<polygon style="fill:#D53039;" points="725.647,413.483 501.283,413.483 498.107,416.73 446.006,469.991 428.979,487.396 
	371.702,545.948 647.899,545.948 "/>
<polygon style="fill:#EFEDE1;" points="950.012,413.483 725.647,413.483 647.899,545.948 924.095,545.948 "/>
<polygon style="fill:#D53039;" points="950.012,413.483 924.095,545.948 1200.292,545.948 1174.376,413.483 "/>
<polygon style="fill:#EFEDE1;" points="1200.292,545.948 1476.489,545.948 1398.74,413.483 1174.376,413.483 "/>
<polygon style="fill:#D53039;" points="1623.216,413.597 1623.105,413.483 1398.74,413.483 1476.489,545.948 1752.686,545.948 
	1692.344,484.262 1675.318,466.858 "/>
<path style="fill:#A62532;" d="M498.106,672.48c3.859,0.297,7.751,0.486,11.694,0.486c76.27,0,138.098-56.867,138.098-127.018
	H371.702c0,42.382,22.59,79.891,57.277,102.965c5.396,3.59,11.083,6.827,17.027,9.68
	C461.824,666.187,479.433,671.038,498.106,672.48z"/>
<path style="fill:#B7B5AC;" d="M785.997,672.966c76.27,0,138.098-56.867,138.098-127.018H647.899
	C647.899,616.099,709.728,672.966,785.997,672.966z"/>
<path style="fill:#A62532;" d="M1062.194,672.966c76.27,0,138.098-56.867,138.098-127.018H924.095
	C924.095,616.099,985.924,672.966,1062.194,672.966z"/>
<path style="fill:#B7B5AC;" d="M1338.391,672.966c76.269,0,138.099-56.867,138.099-127.018h-276.197
	C1200.292,616.099,1262.121,672.966,1338.391,672.966z"/>
<path style="fill:#A62532;" d="M1614.587,672.966c2.901,0,5.773-0.109,8.629-0.271c18.605-1.056,36.211-5.488,52.101-12.658
	c5.926-2.674,11.615-5.722,17.026-9.119c36.423-22.87,60.342-61.346,60.342-104.969h-276.197
	C1476.489,616.099,1538.318,672.966,1614.587,672.966z"/>
</svg>
